<?xml version="1.0" ?><!-- Uploaded to: SVG Repo, www.svgrepo.com, Generator: SVG Repo Mixer Tools -->
<svg width="800px" height="800px" viewBox="0 0 24 24" fill="none" xmlns="http://www.w3.org/2000/svg"><path d="M6 14C6 13.4477 6.44772 13 7 13H9C9.55228 13 10 13.4477 10 14V18C10 18.5523 9.55228 19 9 19H7C6.44772 19 6 18.5523 6 18V14Z" stroke="#6B7B94" stroke-linecap="round" stroke-linejoin="round"/><path d="M10 16C10 15.4477 10.4477 15 11 15H13C13.5523 15 14 15.4477 14 16V18C14 18.5523 13.5523 19 13 19H11C10.4477 19 10 18.5523 10 18V16Z" stroke="#6B7B94" stroke-linecap="round" stroke-linejoin="round"/><path d="M14 17C14 16.4477 14.4477 16 15 16H17C17.5523 16 18 16.4477 18 17V18C18 18.5523 17.5523 19 17 19H15C14.4477 19 14 18.5523 14 18V17Z" stroke="#6B7B94" stroke-linecap="round" stroke-linejoin="round"/><path d="M4 19H20" stroke="#6B7B94" stroke-linecap="round" stroke-linejoin="round"/><path d="M6.72205 5.51526C6.91148 6.10774 7.36383 6.72914 8.04569 7.33356C8.72756 7.93797 9.6215 8.50996 10.6615 9.00726C11.7015 9.50456 12.8609 9.91447 14.0542 10.2067C15.2474 10.4989 16.444 10.666 17.5555 10.6956M16.4012 8.96031L17.7478 10.731L15.5788 12.0295" stroke="#6B7B94" stroke-linecap="round" stroke-linejoin="round"/></svg>